<?xml version="1.0" encoding="UTF-8"?>
<svg width="22px" height="16px" viewBox="0 0 22 16" version="1.1" xmlns="http://www.w3.org/2000/svg" xmlns:xlink="http://www.w3.org/1999/xlink">
    <!-- Generator: Sketch 47.1 (45422) - http://www.bohemiancoding.com/sketch -->
    <title>Shape</title>
    <desc>Created with Sketch.</desc>
    <defs></defs>
    <g id="Symbols" stroke="none" stroke-width="1" fill="none" fill-rule="evenodd">
        <g id="icon-/-email" transform="translate(-2.000000, -5.000000)" fill-rule="nonzero" fill="#CC6000">
            <g id="download-(1)" transform="translate(2.000000, 5.000000)">
                <path d="M21.8154837,8.69795775 C21.7470451,6.68656461 21.7470451,4.70869468 21.6443873,2.69730154 C21.5759487,1.65808175 21.5759487,1.02114058 20.4467125,0.685908393 C19.4543534,0.417722641 18.3593365,0.484769079 17.3669774,0.484769079 C13.021129,0.384199422 8.70949979,0.183060107 4.36365134,0.08249045 C3.40551153,0.0489672309 2.20783676,-0.118648864 1.28391622,0.149536888 C0.428434243,0.384199422 0.394214964,0.853524489 0.291557127,1.69160497 C-0.0164163851,3.97118386 -0.0506356642,6.21723954 0.0520221731,8.49681844 C0.15468001,10.5082116 0.291557127,12.4525583 0.462653523,14.4304282 C0.667969197,16.5088678 3.43973081,15.9724963 5.04803692,15.8384034 C9.22278898,15.5031712 13.5001989,15.6707873 17.6749509,15.1008926 C18.4619943,15.0003229 21.0284403,15.4361248 21.610168,14.1957657 C22.2945536,12.7877905 21.8839223,10.1729794 21.8154837,8.69795775 Z M1.83142469,1.15523346 C4.80850197,0.82000127 7.81979853,1.0546638 10.7626565,1.18875668 C12.2683048,1.25580312 13.7739531,1.25580312 15.2796014,1.38989599 C16.8536882,1.52398887 18.5646522,1.35637278 20.1045197,1.79217462 C18.3593365,2.69730154 16.8536882,3.83709099 15.2111628,4.84278756 C14.4241194,5.31211263 13.6028567,5.74791447 12.781594,6.18371632 C12.4051819,6.38485564 11.7892349,6.8541807 11.3786036,6.8541807 C10.8310951,6.8541807 9.80451672,6.04962345 9.29122754,5.84848413 C8.43574556,5.4462055 7.58026358,5.04392687 6.79322016,4.57460181 C5.93773818,4.07175352 5.15069476,3.53538202 4.32943206,2.99901051 C3.85036216,2.69730154 3.40551153,2.39559257 2.92644162,2.06036038 C2.72112594,1.89274428 1.55767045,1.18875668 1.83142469,1.15523346 Z M2.07095964,14.0281496 C1.62610901,10.1729794 1.52345118,6.11666988 1.55767045,2.22797647 C3.54238864,4.07175352 5.76664179,5.71439126 8.09355277,7.08884324 C5.93773818,9.3013757 4.02145855,11.648001 2.07095964,14.0281496 Z M20.0703005,13.8940567 C16.9905653,14.2292889 13.7739531,13.9611031 10.694218,14.095196 C8.02511421,14.1957657 5.2533526,14.4974747 2.58424883,14.396905 C3.98723927,12.9554066 5.32179116,11.3798153 6.62212376,9.8377472 C7.16963223,9.16728282 7.68292142,8.22863269 8.33308772,7.69226118 C8.81215763,7.28998255 8.77793835,7.45759865 9.39388537,7.7257844 C9.77029744,7.8934005 10.2493674,8.19510947 10.6599987,8.29567912 C11.6181385,8.56386488 12.3367434,7.69226118 13.1237868,7.22293611 C13.8423917,6.78713427 13.637076,6.75361105 14.1503652,7.18941289 C14.5609965,7.5581683 14.86897,8.12806303 15.2111628,8.56386488 C15.963987,9.53603823 16.7510304,10.4411651 17.6065124,11.3127688 C18.4619943,12.1843725 19.4885727,12.8883601 20.3098354,13.8270103 C20.2071776,13.8605335 20.138739,13.8940567 20.0703005,13.8940567 L20.0703005,13.8940567 Z M20.754686,9.26785248 C20.754686,10.575258 20.7889053,11.9161868 20.6178089,13.2235923 C18.66731,10.8434438 16.340399,8.83205063 14.253023,6.55247173 C16.4088376,5.21154297 18.3935558,3.70299811 20.4809318,2.29502291 C20.7889053,4.57460181 20.7889053,6.98827358 20.754686,9.26785248 L20.754686,9.26785248 Z" id="Shape"></path>
            </g>
        </g>
    </g>
</svg>