<?xml version="1.0" encoding="UTF-8"?>
<svg width="150px" height="151px" viewBox="0 0 150 151" version="1.1" xmlns="http://www.w3.org/2000/svg" xmlns:xlink="http://www.w3.org/1999/xlink">
    <!-- Generator: Sketch 59.1 (86144) - https://sketch.com -->
    <title>Stamp / stamp_nutrition with ambition_green</title>
    <desc>Created with Sketch.</desc>
    <defs>
        <polygon id="path-1" points="0 0.000291672655 149.41995 0.000291672655 149.41995 150.036705 0 150.036705"></polygon>
    </defs>
    <g id="PDP-CV-" stroke="none" stroke-width="1" fill="none" fill-rule="evenodd">
        <g id="PDP_SingleProduct_V3" transform="translate(-1226.000000, -1480.000000)">
            <g id="Stamp-/-stamp_nutrition-with-ambition_green" transform="translate(1226.000000, 1480.000000)">
                <g id="Group" transform="translate(0.000000, -0.000000)">
                    <mask id="mask-2" fill="white">
                        <use xlink:href="#path-1"></use>
                    </mask>
                    <g id="Clip-2"></g>
                    <path d="M95.1418109,61.68311 C97.709566,59.1047444 101.707525,58.4998059 103.847933,58.365785 C103.71875,60.5095049 103.118137,64.511689 100.538137,67.1023502 C98.784668,68.8630653 96.389566,69.6678056 94.3501782,70.0667945 L98.6303823,65.7689036 C99.2267089,65.1701129 99.2267089,64.1999982 98.6303823,63.6012075 C98.0340558,63.0024168 97.0679333,63.0024168 96.4716068,63.6012075 L92.1816068,67.9089348 C92.5765048,65.8623494 93.3773211,63.4548911 95.1418109,61.68311 L95.1418109,61.68311 Z M88.8369129,73.4351458 L90.2028313,73.5113779 C90.2499742,73.5132222 90.4642599,73.5230586 90.8089538,73.5230586 C92.7448721,73.5230586 98.7914027,73.1916949 102.696913,69.2694315 C107.298546,64.6493986 106.939158,57.0446339 106.92079,56.7237214 L106.845484,55.3521588 L105.480178,55.2765415 C105.161811,55.2624016 97.5828313,54.8947663 92.9836476,59.5160287 C88.3814027,64.1360616 88.7432395,71.7426707 88.7609946,72.0641979 L88.8369129,73.4351458 Z M44.8807905,58.365785 C47.0211987,58.4998059 51.0148721,59.1065887 53.5807905,61.68311 C55.3348721,63.4444399 56.1363007,65.8506686 56.5336476,67.8997132 L52.2528313,63.6012075 C51.657117,63.0024168 50.6903823,63.0024168 50.0940558,63.6012075 C49.4983415,64.1999982 49.4983415,65.1701129 50.0940558,65.7689036 L54.3834436,70.0754013 C52.3458925,69.6788715 49.9501782,68.8735165 48.1863007,67.1023502 C45.6179333,64.5258289 45.0142599,60.5156526 44.8807905,58.365785 L44.8807905,58.365785 Z M58.5222191,73.5113779 L59.8875252,73.4351458 L59.9634436,72.0641979 C59.9811987,71.7426707 60.3411987,64.1360616 55.739566,59.5160287 C51.1397701,54.8972254 43.564464,55.264246 43.2448721,55.2765415 L41.8789538,55.3521588 L41.8036476,56.7237214 C41.7858925,57.0446339 41.4240558,64.6493986 46.0275252,69.2694315 C49.9336476,73.1916949 55.9801782,73.5230586 57.9160966,73.5230586 C58.2601782,73.5230586 58.474464,73.5132222 58.5222191,73.5113779 L58.5222191,73.5113779 Z M81.2854844,102.118081 C83.1773211,99.0528132 84.3938517,94.7401677 84.6111987,89.8078292 L89.702015,89.8078292 C89.1650762,95.2110852 85.9073211,99.7764032 81.2854844,102.118081 L81.2854844,102.118081 Z M59.0224231,89.8078292 L64.1132395,89.8078292 C64.3305864,94.7401677 65.5477293,99.0528132 67.4389538,102.118081 C62.8177293,99.7757884 59.5593619,95.2110852 59.0224231,89.8078292 L59.0224231,89.8078292 Z M67.4389538,74.4316958 C65.547117,77.4969631 64.3305864,81.808379 64.1132395,86.7419471 L59.0224231,86.7419471 C59.5593619,81.3386911 62.8177293,76.7733731 67.4389538,74.4316958 L67.4389538,74.4316958 Z M67.5405864,56.4040385 C66.0497701,54.9070618 65.5685456,52.6434608 65.4179333,51.155091 C66.9007905,51.3063256 69.154464,51.7895386 70.6452803,53.2865153 C72.1360966,54.783492 72.6167089,57.0464782 72.7685456,58.5354629 C71.2856884,58.3842283 69.0314027,57.9010152 67.5405864,56.4040385 L67.5405864,56.4040385 Z M74.3603823,42.1572465 C75.3007905,43.3210152 76.557117,45.2686219 76.557117,47.3723814 C76.557117,49.4884364 75.3069129,51.428051 74.3640558,52.5881311 C73.4242599,51.4243623 72.1679333,49.4761409 72.1679333,47.3723814 C72.1679333,45.2569412 73.4181374,43.3167118 74.3603823,42.1572465 L74.3603823,42.1572465 Z M81.1838517,56.4040385 C79.6936476,57.8991709 77.4436476,58.3842283 75.9583415,58.5354629 C76.1138517,57.0446339 76.5987497,54.7755 78.0791578,53.2865153 C79.5699742,51.7895386 81.8242599,51.3063256 83.307117,51.155091 C83.1558925,52.6434608 82.6752803,54.9070618 81.1838517,56.4040385 L81.1838517,56.4040385 Z M75.8891578,86.7419471 L75.8891578,73.1578823 C78.6460966,74.5878486 81.2193619,79.7181446 81.5616068,86.7419471 L75.8891578,86.7419471 Z M75.8891578,103.392509 L75.8891578,89.8078292 L81.5616068,89.8078292 C81.2193619,96.8322465 78.6460966,101.962542 75.8891578,103.392509 L75.8891578,103.392509 Z M72.8358925,89.8078292 L72.8358925,103.392509 C70.0789538,101.962542 67.5056884,96.8322465 67.1628313,89.8078292 L72.8358925,89.8078292 Z M72.8358925,73.1578823 L72.8358925,86.7419471 L67.1628313,86.7419471 C67.5056884,79.7181446 70.0789538,74.5878486 72.8358925,73.1578823 L72.8358925,73.1578823 Z M89.702015,86.7419471 L84.6111987,86.7419471 C84.3938517,81.808379 83.1773211,77.4969631 81.2854844,74.4316958 C85.9067089,76.7733731 89.1650762,81.3386911 89.702015,86.7419471 L89.702015,86.7419471 Z M92.909566,88.2751955 C92.909566,78.5303996 85.3918109,70.600419 75.8891578,69.8055152 L75.8891578,61.6167143 C77.8134436,61.4654797 81.0583415,60.8636152 83.3432395,58.5717346 C86.6922191,55.2083015 86.4301782,49.7097553 86.4179333,49.4779852 L86.342015,48.1070373 L84.9760966,48.0308052 C84.8260966,48.0283462 82.1787497,47.9275231 79.4511987,48.9431311 C79.5442599,48.4340975 79.6097701,47.9127685 79.6097701,47.3723814 C79.6097701,42.6140242 75.5530354,38.9136944 75.3803823,38.7581564 L74.3622191,37.8421419 L73.344668,38.7581564 C73.172015,38.9136944 69.114668,42.6140242 69.114668,47.3723814 C69.114668,47.9121537 69.1801782,48.4334828 69.2732395,48.9425163 C66.5481374,47.9262935 63.904464,48.0271166 63.7458925,48.0308052 L62.3805864,48.1070373 L62.304668,49.4779852 C62.2930354,49.7097553 62.0322191,55.2083015 65.3818109,58.5717346 C67.6654844,60.8648447 70.9116068,61.4654797 72.8358925,61.6167143 L72.8358925,69.8055152 C63.3326272,70.600419 55.8148721,78.5303996 55.8148721,88.2751955 C55.8148721,98.5437796 64.1352803,106.899184 74.3622191,106.899184 C84.5891578,106.899184 92.909566,98.5437796 92.909566,88.2751955 L92.909566,88.2751955 Z M121.276709,100.970911 L128.88079,106.0385 L127.728546,107.780772 L120.886709,108.20804 L125.438137,111.241954 L124.206301,113.106566 L116.60528,108.038362 L117.761811,106.286254 L124.627525,105.871281 L120.052219,102.821383 L121.276709,100.970911 Z M117.245688,117.922097 C116.278954,118.878072 114.657117,118.882375 113.607729,117.826192 C112.566301,116.76878 112.585893,115.163603 113.559974,114.197791 C114.526097,113.228291 116.092219,113.254112 117.133648,114.310295 C118.183648,115.367708 118.211199,116.951983 117.245688,117.922097 L117.245688,117.922097 Z M112.108954,112.769055 C110.105076,114.767073 109.99426,117.657129 111.870178,119.546947 C113.746709,121.447216 116.64875,121.38328 118.652015,119.382802 C120.655893,117.387243 120.73977,114.468907 118.858954,112.571097 C116.998342,110.689271 114.108546,110.772881 112.108954,112.769055 L112.108954,112.769055 Z M107.226913,117.167768 L112.629362,124.545067 L110.713648,125.957819 L105.307525,118.585439 L107.226913,117.167768 Z M102.695076,122.598689 L106.205076,128.879844 L104.122219,130.053449 L100.612219,123.77045 L98.2507905,125.103282 L97.2803823,123.378839 L104.117933,119.527274 L105.080382,121.252947 L102.695076,122.598689 Z M95.7822191,123.906315 L99.2365048,132.416644 L97.022015,133.322822 L93.5634436,124.80819 L95.7822191,123.906315 Z M89.9377293,133.650497 L88.164668,134.097438 L87.6956884,132.233441 L89.4687497,131.78404 C90.2763007,131.56641 90.872015,131.792032 91.0116068,132.352707 C91.1622191,132.95949 90.7489538,133.442703 89.9377293,133.650497 L89.9377293,133.650497 Z M86.8373211,128.817752 L88.6103823,128.365277 C89.2465048,128.189452 89.7228313,128.408926 89.8581374,128.94378 C89.9977293,129.502611 89.6879333,129.929879 89.0432395,130.093409 L87.2707905,130.544654 L86.8373211,128.817752 Z M91.0869129,130.250792 C91.9618109,129.757742 92.3628313,128.858327 92.1283415,127.930017 C91.7867089,126.560298 90.2879333,126.010075 88.2803823,126.520953 L84.0663007,127.586358 L86.3083415,136.488297 L90.6816068,135.376784 C92.7687497,134.849922 93.8536476,133.55828 93.4716068,132.035483 C93.1863007,130.893846 92.2716068,130.193003 91.0869129,130.250792 L91.0869129,130.250792 Z M81.9638517,128.055431 L82.3526272,137.198977 L80.2458925,137.290578 L79.9875252,131.495096 L78.0791578,136.464936 L76.5209946,136.532561 L74.1956884,131.74408 L74.4418109,137.534029 L72.3228313,137.625631 L71.937117,128.484544 L74.5330354,128.373269 L77.1767089,133.604388 L79.3673211,128.165476 L81.9638517,128.055431 Z M63.509566,132.939202 L65.3224231,129.94156 L65.9940558,133.372618 L63.509566,132.939202 Z M64.6030354,127.334915 L59.1760966,135.681713 L61.5852803,136.105293 L62.4914027,134.618152 L66.3760966,135.294405 L66.7177293,137.003479 L69.2101782,137.438739 L67.0079333,127.758495 L64.6030354,127.334915 Z M53.0897701,123.66225 L55.2326272,124.712285 L51.2132395,132.963178 L49.0703823,131.911299 L50.6132395,128.746438 L47.2973211,127.117899 L45.7550762,130.280916 L43.6085456,129.229036 L47.6279333,120.978143 L49.774464,122.030023 L48.1367089,125.397144 L51.4477293,127.027527 L53.0897701,123.66225 Z M45.302015,121.830221 L43.0997701,120.197994 L38.8416068,126.005772 L36.9179333,124.586256 L41.1754844,118.778479 L38.9891578,117.16408 L40.1542599,115.566895 L46.4750762,120.237339 L45.302015,121.830221 Z M39.084668,114.445546 L32.7754844,121.099254 L31.0465048,119.44305 L37.3514027,112.793031 L39.084668,114.445546 Z M36.1232395,112.149976 L26.9634436,115.119954 L25.5124231,113.121935 L29.5238517,108.137956 L23.544668,110.413852 L22.0936476,108.42567 L27.7109946,100.579914 L29.2293619,102.66523 L24.9081374,107.984262 L31.264464,105.467989 L32.6401782,107.360266 L28.3269129,112.68483 L34.679566,110.161794 L36.1232395,112.149976 Z M103.446301,30.7187459 L109.00426,23.4594846 L110.662219,24.7388311 L110.597933,31.6409081 L113.941403,27.2717034 L115.69426,28.6248228 L110.141199,35.8822397 L108.487525,34.6084263 L108.538954,27.7303254 L105.211403,32.078013 L103.446301,30.7187459 Z M97.3679333,22.4137526 C98.0156884,21.0723139 99.5389538,20.5589769 100.77079,21.1559233 C102.007525,21.754714 102.504056,23.2498464 101.860586,24.5949737 C101.207933,25.9364124 99.7214027,26.4970871 98.4932395,25.8982964 C97.2687497,25.3056535 96.7281374,23.75888 97.3679333,22.4137526 L97.3679333,22.4137526 Z M97.5828313,27.7266368 C100.130995,28.9623342 102.906301,28.0696811 104.066505,25.6548456 C105.223648,23.2596828 104.182219,20.5436076 101.634056,19.3079102 C99.0889538,18.0703684 96.3301782,18.9285941 95.1736476,21.3317489 C94.0085456,23.7508879 95.0383415,26.489095 97.5828313,27.7266368 L97.5828313,27.7266368 Z M89.1314027,24.3656627 L91.8418109,15.6272532 L94.112015,16.3379329 L91.404668,25.0763424 L89.1314027,24.3656627 Z M83.8758925,15.8547199 L81.212015,15.3881058 L81.5499742,13.443573 L89.254464,14.7911594 L88.9122191,16.7350775 L86.2287497,16.2660043 L84.9969129,23.343907 L82.6514027,22.9344669 L83.8758925,15.8547199 Z M78.4054844,22.4574016 L76.0201782,22.349816 L76.4334436,13.1804494 L78.8187497,13.288035 L78.4054844,22.4574016 Z M69.4685456,15.3340056 C70.4224231,15.2442485 71.0309946,15.671517 71.1142599,16.569703 C71.2018109,17.4955539 70.6893619,18.0427035 69.7311987,18.134305 L68.0016068,18.2978351 L67.739566,15.4956914 L69.4685456,15.3340056 Z M68.4191578,22.7248287 L68.1803823,20.1981041 L69.8940558,20.0364183 L69.9454844,20.034574 L71.5042599,22.4334254 L74.187117,22.1801382 L72.0167089,19.3755354 C73.014668,18.7287923 73.4916068,17.659084 73.3642599,16.2782998 C73.1738517,14.2483133 71.6909946,13.2044256 69.2738517,13.4318923 L65.1914027,13.8192004 L66.0460966,22.9522954 L68.4191578,22.7248287 Z M55.1493619,18.3617717 L54.6167089,16.457814 L62.1656884,14.3497511 L62.6903823,16.2524792 L60.054668,16.9883647 L61.9752803,23.9224101 L59.6811987,24.5666941 L57.7569129,17.6314192 L55.1493619,18.3617717 Z M46.5460966,25.9425602 L44.2526272,21.1362505 L46.4034436,20.0960515 L48.7005864,24.9066646 C49.2099742,25.9659216 50.2275252,26.289908 51.2016068,25.8183757 C52.1597701,25.3597536 52.5056884,24.3933276 51.9889538,23.3199307 L49.6948721,18.5136211 L51.8499742,17.4715777 L54.1434436,22.281576 C55.1891578,24.4652563 54.389566,26.5493429 52.0765048,27.6663888 C49.7463007,28.7883529 47.5918109,28.1262404 46.5460966,25.9425602 L46.5460966,25.9425602 Z M39.6889538,35.6185013 L34.167117,28.2953035 L35.8483415,27.0257934 L42.4716068,28.9162261 L39.152015,24.5113644 L40.917117,23.1680814 L46.4352803,30.4888201 L44.7730354,31.7521824 L38.1583415,29.8783487 L41.4656884,34.2672262 L39.6889538,35.6185013 Z M34.2724231,75.5309132 C34.1352803,64.6850555 38.2140558,54.4336852 45.7550762,46.6678494 C53.2967089,38.9020137 63.3981374,34.5487931 74.1993619,34.4129279 C74.374464,34.4110835 74.5514027,34.4092392 74.7258925,34.4092392 C85.3330354,34.4092392 95.334668,38.4925737 102.943648,45.9418004 C110.677525,53.513982 115.012831,63.6589963 115.148137,74.504854 C115.28528,85.3507116 111.208342,95.602082 103.667321,103.368533 C96.1256884,111.134368 86.0218109,115.487589 75.2211987,115.622839 C75.0479333,115.624684 74.877117,115.627143 74.704464,115.627143 C52.6409946,115.627143 34.5528313,97.7476462 34.2724231,75.5309132 L34.2724231,75.5309132 Z M75.2609946,118.688721 C86.877117,118.540561 97.7414027,113.860895 105.851199,105.507334 C113.963444,97.1543885 118.348342,86.1314757 118.201403,74.4655084 C118.054464,62.8007707 113.393444,51.8909764 105.074872,43.747669 C96.7563007,35.6025172 85.8179333,31.2474522 74.159566,31.3470458 C62.5434436,31.4952065 51.6785456,36.1754873 43.5687497,44.528433 C35.4589538,52.8813787 31.0722191,63.9049063 31.2191578,75.5708736 C31.5209946,99.4640975 50.9726272,118.694254 74.704464,118.69241 C74.8869129,118.69241 75.0760966,118.690566 75.2609946,118.688721 L75.2609946,118.688721 Z M146.267933,78.7843016 C144.198546,118.403466 110.441199,148.960849 70.9593619,146.871229 C31.5032395,144.795135 1.08568845,110.873089 3.15262722,71.2514656 C5.15466804,32.9061147 36.8585456,3.06494423 74.6683415,3.06494423 C75.924668,3.06494423 77.1907905,3.09691252 78.4611987,3.16453775 C117.916709,5.24063237 148.334872,39.163293 146.267933,78.7843016 L146.267933,78.7843016 Z M78.6203823,0.10295907 C37.4524231,-2.04875285 2.25997416,29.7867472 0.103647633,71.0922389 C-2.05145441,112.399575 29.6628313,147.769415 70.8001782,149.932808 C72.1263007,150.002892 73.442015,150.036705 74.7540558,150.036705 C114.170382,150.036705 147.22977,118.920492 149.316301,78.9441431 C151.471403,37.6361923 119.757729,2.26696649 78.6203823,0.10295907 L78.6203823,0.10295907 Z" id="Fill-1" fill="#FFFFFF" mask="url(#mask-2)"></path>
                </g>
            </g>
        </g>
    </g>
</svg>