<?xml version="1.0" encoding="UTF-8"?>
<svg viewBox="0 0 14 14" version="1.1" xmlns="http://www.w3.org/2000/svg" xmlns:xlink="http://www.w3.org/1999/xlink">
    <title>Search</title>
    <g id="Symbols" stroke="none" stroke-width="1" fill-rule="evenodd">
        <g id="Navigation-/-1020---921" transform="translate(-763.000000, -70.000000)" fill-rule="nonzero">
            <g id="SearchGroup" transform="translate(538.000000, 56.000000)">
                <g id="search" transform="translate(226.000000, 15.000000)">
                    <path d="M5.2,11.4 C1.77583455,11.4 -1,8.62416545 -1,5.2 C-1,1.77583455 1.77583455,-1 5.2,-1 C8.62416545,-1 11.4,1.77583455 11.4,5.2 C11.4,8.62416545 8.62416545,11.4 5.2,11.4 Z M5.2,9.4 C7.51959595,9.4 9.4,7.51959595 9.4,5.2 C9.4,2.88040405 7.51959595,1 5.2,1 C2.88040405,1 1,2.88040405 1,5.2 C1,7.51959595 2.88040405,9.4 5.2,9.4 Z" id="Oval"></path>
                    <path d="M12.7071068,11.2928932 L9.50710678,8.09289322 C9.11658249,7.70236893 8.48341751,7.70236893 8.09289322,8.09289322 C7.70236893,8.48341751 7.70236893,9.11658249 8.09289322,9.50710678 L11.2928932,12.7071068 C11.6834175,13.0976311 12.3165825,13.0976311 12.7071068,12.7071068 C13.0976311,12.3165825 13.0976311,11.6834175 12.7071068,11.2928932 Z" id="Shape"></path>
                </g>
            </g>
        </g>
    </g>
</svg>